<svg width="40" height="40" viewBox="0 0 40 40" fill="none" xmlns="http://www.w3.org/2000/svg">
<g id="socials">
<path id="bg" d="M40 20C40 8.95431 31.0457 0 20 0V0C8.95431 0 0 8.95431 0 20V20C0 31.0457 8.95431 40 20 40V40C31.0457 40 40 31.0457 40 20V20Z" fill="black"/>
<g id="twitch">
<path d="M15.0031 11.7852L11.4316 15.3566V28.2137H15.7174V31.7852L19.2888 28.2137H22.1459L28.5745 21.7852V11.7852H15.0031ZM27.1459 21.0709L24.2888 23.928H21.4316L18.9316 26.428V23.928H15.7174V13.2137H27.1459V21.0709Z" fill="white"/>
<path d="M25.0031 15.7137H23.5745V19.9994H25.0031V15.7137Z" fill="white"/>
<path d="M21.0745 15.7137H19.6459V19.9994H21.0745V15.7137Z" fill="white"/>
</g>
</g>
</svg>
