<svg width="450" height="731" viewBox="0 0 450 731" fill="none" xmlns="http://www.w3.org/2000/svg">
<path d="M199.162 407.001C199.162 407.001 254.323 385.054 289.4 405.434C303.998 413.958 360.532 450.308 343.288 524.085C333.686 565.236 294.103 606.191 247.857 603.84C188.972 600.802 122.445 591.592 98.4401 496.553C87.9564 455.305 99.3219 399.261 129.695 366.634C193.087 298.539 301.549 306.966 364.647 259.446C395.216 236.519 415.89 172.442 401.683 116.986C385.222 52.7122 318.597 0.587769 318.597 0.587769C318.597 0.587769 329.473 25.9641 320.949 69.7604C312.522 113.557 296.356 138.443 278.328 156.177C260.3 173.911 231.593 194.487 231.593 194.487C231.593 194.487 240.704 170.776 234.14 158.431C227.673 146.379 226.106 146.967 226.106 146.967C226.106 146.967 221.991 174.891 187.894 210.947C153.798 247.101 42.4946 329.501 23.7807 431.692C15.4526 477.056 24.4666 523.889 38.1835 551.323C68.3608 611.874 172.218 663.508 172.218 663.508C172.218 663.508 109.904 667.427 58.465 624.611C39.4572 608.836 10.3577 575.23 1.3437 553.185C-0.615865 548.384 -5.31881 610.894 30.4432 658.707C62.4821 701.524 123.327 733.661 186.62 744.732C234.826 753.158 279.7 747.28 279.7 747.28C279.7 747.28 247.759 768.443 196.32 772.852C162.322 775.693 96.9704 748.847 96.9704 748.847C96.9704 748.847 127.246 772.264 183.681 791.566C218.659 803.519 305.272 813.611 378.364 777.849C451.456 742.087 484.67 689.374 495.644 657.238C506.617 625.199 514.75 581.794 502.11 540.056C491.333 504.686 464.683 469.511 464.683 469.511C464.683 469.511 485.258 479.799 502.698 504.392C519.452 527.906 522 536.039 522 536.039C522 536.039 517.787 458.538 491.039 420.13C466.446 384.858 421.572 335.183 352.4 330.382C288.812 325.973 263.925 340.376 238.451 361.931C218.855 378.49 199.162 407.001 199.162 407.001Z" fill="url(#paint0_radial_180_935)"/>
<defs>
<radialGradient id="paint0_radial_180_935" cx="0" cy="0" r="1" gradientUnits="userSpaceOnUse" gradientTransform="translate(338.258 479.287) rotate(18.8861) scale(338.696 338.696)">
<stop offset="0.0664" stop-color="#722B71"/>
<stop offset="0.3642" stop-color="#C71B73"/>
<stop offset="0.6546" stop-color="#D02229"/>
<stop offset="1" stop-color="#E9AB22"/>
</radialGradient>
</defs>
</svg>
