<svg width="450" height="803" viewBox="0 0 450 803" fill="none" xmlns="http://www.w3.org/2000/svg">
<path d="M199.162 407.001C199.162 407.001 254.323 385.054 289.4 405.434C303.998 413.958 360.532 450.308 343.288 524.085C333.686 565.236 294.103 606.191 247.857 603.84C188.972 600.802 122.445 591.592 98.4401 496.553C87.9564 455.305 99.3219 399.261 129.695 366.634C193.087 298.539 301.549 306.966 364.647 259.446C395.216 236.519 415.889 172.442 401.683 116.986C385.222 52.7122 318.597 0.58783 318.597 0.58783C318.597 0.58783 329.473 25.9642 320.949 69.7604C312.522 113.557 296.356 138.443 278.328 156.177C260.3 173.911 231.592 194.487 231.592 194.487C231.592 194.487 240.704 170.776 234.14 158.431C227.673 146.379 226.106 146.967 226.106 146.967C226.106 146.967 221.991 174.891 187.894 210.947C153.798 247.101 42.4946 329.501 23.7807 431.692C15.4526 477.056 24.4666 523.889 38.1835 551.323C68.3608 611.874 172.218 663.508 172.218 663.508C172.218 663.508 109.904 667.427 58.465 624.611C39.4572 608.836 10.3577 575.23 1.3437 553.185C-0.615865 548.384 -5.31881 610.894 30.4432 658.707C62.4821 701.524 123.327 733.661 186.62 744.732C234.826 753.158 279.7 747.28 279.7 747.28C279.7 747.28 247.759 768.443 196.32 772.852C162.322 775.693 96.9704 748.847 96.9704 748.847C96.9704 748.847 127.246 772.264 183.681 791.566C218.659 803.519 305.272 813.611 378.364 777.849C451.456 742.087 484.67 689.375 495.644 657.238C506.617 625.199 514.75 581.794 502.11 540.056C491.333 504.686 464.683 469.511 464.683 469.511C464.683 469.511 485.258 479.799 502.698 504.392C519.452 527.906 522 536.039 522 536.039C522 536.039 517.787 458.538 491.039 420.13C466.446 384.858 421.572 335.183 352.4 330.382C288.812 325.973 263.925 340.376 238.451 361.931C218.855 378.49 199.162 407.001 199.162 407.001Z" fill="url(#paint0_radial_180_932)"/>
<path d="M199.162 407.002C199.162 407.002 242.175 334.008 360.63 362.03C495.448 393.971 522 535.843 522 535.843C522 535.843 521.706 457.362 477.616 398.673C441.952 351.056 378.462 329.207 344.66 327.149C242.37 320.977 199.162 407.002 199.162 407.002Z" fill="url(#paint1_linear_180_932)"/>
<path d="M199.258 406.806C199.258 406.806 315.95 332.93 411.773 453.541C475.165 533.197 427.058 639.308 352.888 702.014C219.736 814.395 97.165 748.847 97.165 748.847C97.165 748.847 173.098 819.588 301.645 799.11C455.667 774.518 520.823 668.799 507.596 555.83C500.639 496.749 437.835 436.787 409.813 417.779C296.159 340.768 199.258 406.806 199.258 406.806Z" fill="url(#paint2_linear_180_932)"/>
<path d="M199.16 407.002C199.16 407.002 258.339 384.075 306.936 426.499C342.11 457.264 337.505 510.663 318.007 545.837C280.188 613.736 215.522 619.026 146.447 590.907C22.407 540.448 24.9544 428.361 24.9544 428.361C24.9544 428.361 -1.10777 506.547 58.9529 586.4C130.869 682.026 235.02 686.533 308.307 639.798C360.824 606.289 394.234 539.076 366.898 476.664C311.835 350.762 199.16 407.002 199.16 407.002Z" fill="url(#paint3_linear_180_932)"/>
<path d="M256.38 302.753C256.38 302.753 356.122 275.417 378.363 195.467C410.01 82.0078 318.106 0 318.106 0C318.106 0 377.481 35.6641 404.327 94.549C426.078 142.264 416.084 191.057 399.232 223.096C366.213 285.704 256.38 302.753 256.38 302.753Z" fill="url(#paint4_linear_180_932)"/>
<path d="M98.543 298.54C98.543 298.54 132.345 264.345 198.579 225.154C267.457 184.297 227.678 132.271 227.678 132.271C227.678 132.271 230.911 159.411 200.93 193.213C190.349 205.166 158.506 234.756 136.852 256.703C112.358 281.687 98.543 298.54 98.543 298.54Z" fill="url(#paint5_linear_180_932)"/>
<defs>
<radialGradient id="paint0_radial_180_932" cx="0" cy="0" r="1" gradientUnits="userSpaceOnUse" gradientTransform="translate(338.258 479.287) rotate(18.8861) scale(338.696 338.696)">
<stop offset="0.0664" stop-color="#722B71"/>
<stop offset="0.3642" stop-color="#C71B73"/>
<stop offset="0.6546" stop-color="#D02229"/>
<stop offset="1" stop-color="#E9AB22"/>
</radialGradient>
<linearGradient id="paint1_linear_180_932" x1="192.11" y1="476.222" x2="479.026" y2="419.859" gradientUnits="userSpaceOnUse">
<stop offset="0.0664" stop-color="#7A2C79"/>
<stop offset="0.3243" stop-color="#C81B74"/>
<stop offset="0.5938" stop-color="#D72229"/>
<stop offset="0.9944" stop-color="#E9AB22"/>
</linearGradient>
<linearGradient id="paint2_linear_180_932" x1="121.251" y1="533.171" x2="460.61" y2="669.17" gradientUnits="userSpaceOnUse">
<stop offset="0.0664" stop-color="#7A2C79"/>
<stop offset="0.3243" stop-color="#C81B74"/>
<stop offset="0.5938" stop-color="#D72229"/>
<stop offset="0.9944" stop-color="#E9AB22"/>
</linearGradient>
<linearGradient id="paint3_linear_180_932" x1="186.33" y1="381.786" x2="212.904" y2="647.614" gradientUnits="userSpaceOnUse">
<stop offset="0.0664" stop-color="#7A2C79"/>
<stop offset="0.3243" stop-color="#C81B74"/>
<stop offset="0.5938" stop-color="#D72229"/>
<stop offset="0.9944" stop-color="#E9AB22"/>
</linearGradient>
<linearGradient id="paint4_linear_180_932" x1="249.569" y1="254.014" x2="394.893" y2="29.5787" gradientUnits="userSpaceOnUse">
<stop offset="0.0664" stop-color="#7A2C79"/>
<stop offset="0.3243" stop-color="#C81B74"/>
<stop offset="0.5938" stop-color="#D72229"/>
<stop offset="0.9944" stop-color="#E9AB22"/>
</linearGradient>
<linearGradient id="paint5_linear_180_932" x1="120.318" y1="246.497" x2="230.131" y2="263.401" gradientUnits="userSpaceOnUse">
<stop offset="0.0664" stop-color="#7A2C79"/>
<stop offset="0.3243" stop-color="#C81B74"/>
<stop offset="0.5938" stop-color="#D72229"/>
<stop offset="0.9944" stop-color="#E9AB22"/>
</linearGradient>
</defs>
</svg>
