<svg width="42" height="42" viewBox="0 0 42 42" fill="none" xmlns="http://www.w3.org/2000/svg">
<g id="Property 1=hover">
<rect id="Rectangle 1" x="34.0514" y="-2.48746" width="38" height="38" rx="19" transform="rotate(74.0604 34.0514 -2.48746)" fill="black" stroke="url(#paint0_linear_147_1141)" stroke-width="2"/>
<path id="Vector" d="M29 13.6022L25.9946 29.2923C25.9946 29.2923 25.5741 30.3801 24.4189 29.8584L17.4846 24.3526L17.4524 24.3364C18.3891 23.4654 25.6524 16.7027 25.9698 16.3961C26.4613 15.9214 26.1562 15.6387 25.5856 15.9974L14.8568 23.053L10.7176 21.6108C10.7176 21.6108 10.0663 21.3708 10.0036 20.8491C9.9401 20.3265 10.7391 20.0439 10.7391 20.0439L27.6131 13.1889C27.6131 13.1889 29 12.5579 29 13.6022V13.6022Z" fill="white"/>
</g>
<defs>
<linearGradient id="paint0_linear_147_1141" x1="34.7383" y1="16.2764" x2="74.7383" y2="16.2764" gradientUnits="userSpaceOnUse">
<stop stop-color="#C71B74"/>
<stop offset="1" stop-color="#A842A2"/>
</linearGradient>
</defs>
</svg>
