<svg width="244" height="85" viewBox="0 0 244 85" fill="none" xmlns="http://www.w3.org/2000/svg">
<g id="Group">
<g id="Group_2">
<g id="Group_3">
<g id="Group_4">
<path id="Vector" d="M85.0279 41.1647H91.9223V46.0198H85.0279L85.0111 60.0811H79.6768L79.7271 26.0449H93.8514V30.9H85.0615L85.0279 41.1647Z" fill="white"/>
<path id="Vector_2" d="M96.8872 26.0278H102.222L102.171 60.0641H96.8369L96.8872 26.0278Z" fill="white"/>
<path id="Vector_3" d="M117.722 60.0811C117.437 59.2076 117.235 58.67 117.235 55.898V50.5557C117.235 47.3974 116.179 46.2214 113.746 46.2214H111.901L111.884 60.0811H106.55L106.6 26.0449H114.652C120.188 26.0449 122.57 28.6153 122.553 33.8736V36.5447C122.553 40.0391 121.429 42.3238 119.047 43.4494C121.714 44.575 122.586 47.1454 122.586 50.6901V55.9484C122.586 57.5948 122.637 58.8212 123.157 60.0811H117.722ZM111.935 30.9L111.918 41.3495H114.015C116.011 41.3495 117.219 40.4759 117.219 37.7543V34.3944C117.219 31.9584 116.397 30.9 114.501 30.9H111.935Z" fill="white"/>
<path id="Vector_4" d="M131.914 40.375H139.244V45.2301H131.914L131.897 55.1923H141.123V60.0475H126.562L126.613 26.0112H141.173V30.8663H131.947L131.914 40.375Z" fill="white"/>
<path id="Vector_5" d="M152.144 25.6416C157.344 25.6416 160.011 28.7495 159.994 34.1927V35.2678H154.945V33.8567C154.945 31.4207 153.972 30.4967 152.278 30.4967C150.584 30.4967 149.611 31.4207 149.611 33.8567C149.594 40.8621 160.045 42.1725 160.028 51.8996C160.028 57.3427 157.293 60.4506 152.06 60.4506C146.826 60.4506 144.092 57.3427 144.108 51.8996V49.8164H149.158V52.2523C149.158 54.6883 150.214 55.5619 151.926 55.5619C153.62 55.5619 154.693 54.6883 154.693 52.2523C154.71 45.2469 144.259 43.9365 144.276 34.2095C144.259 28.7663 146.943 25.6416 152.144 25.6416Z" fill="white"/>
<path id="Vector_6" d="M162.041 26.0278H178.547V30.8829H172.961L172.928 60.0641H167.593L167.627 30.8829H162.041V26.0278Z" fill="white"/>
<path id="Vector_7" d="M180.912 34.2093C180.912 28.7661 183.781 25.6582 189.031 25.6582C194.282 25.6582 197.134 28.7661 197.134 34.2093L197.117 51.9162C197.117 57.3593 194.248 60.4672 188.998 60.4672C183.747 60.4672 180.896 57.3593 180.896 51.9162L180.912 34.2093ZM186.23 52.2521C186.23 54.6881 187.287 55.6121 188.998 55.6121C190.692 55.6121 191.766 54.6881 191.766 52.2521L191.782 33.8733C191.782 31.4373 190.726 30.5133 189.014 30.5133C187.32 30.5133 186.247 31.4373 186.247 33.8733L186.23 52.2521Z" fill="white"/>
<path id="Vector_8" d="M212.197 60.0811C211.912 59.2076 211.711 58.67 211.711 55.898V50.5557C211.711 47.3974 210.654 46.2214 208.222 46.2214H206.377L206.36 60.0811H201.025L201.076 26.0449H209.128C214.663 26.0449 217.045 28.6153 217.029 33.8736V36.5447C217.029 40.0391 215.905 42.3238 213.523 43.4494C216.19 44.575 217.062 47.1454 217.062 50.6901V55.9484C217.062 57.5948 217.112 58.8212 217.632 60.0811H212.197ZM206.41 30.9L206.393 41.3495H208.49C210.486 41.3495 211.694 40.4759 211.694 37.7543V34.3944C211.694 31.9584 210.872 30.9 208.977 30.9H206.41Z" fill="white"/>
<path id="Vector_9" d="M232.361 50.2026L236.034 26.0278H243.466L243.415 60.0641H238.366L238.4 35.6541L234.676 60.0641H229.626L225.668 35.9901L225.634 60.0641H220.971L221.021 26.0278H228.452L232.361 50.2026Z" fill="white"/>
</g>
<g id="Group_5">
<g id="Group_6">
<path id="Vector_10" d="M79.7275 78.4263V73.4368C79.7275 71.2696 80.8514 70.144 82.5289 70.144C84.307 70.144 85.3135 71.1856 85.4645 73.2016H84.9613C84.8271 71.4544 84.0051 70.6312 82.5457 70.6312C81.1534 70.6312 80.2476 71.5384 80.2476 73.4368V78.4263C80.2476 80.3247 81.1534 81.2319 82.5625 81.2319C84.0554 81.2319 84.9109 80.4087 85.0451 78.6615H85.5316C85.3974 80.6775 84.3406 81.719 82.5457 81.719C80.8514 81.719 79.7275 80.5935 79.7275 78.4263Z" fill="white"/>
<path id="Vector_11" d="M91.2516 73.6552H89.138L89.1212 81.5343H88.6348L88.6515 73.6552H86.5547V73.2017H91.2684V73.6552H91.2516Z" fill="white"/>
<path id="Vector_12" d="M97.375 75.57V81.5339H96.9221L96.8886 80.5259C96.5363 81.2483 95.815 81.7019 94.7078 81.7019C93.2988 81.7019 92.3594 80.7611 92.3594 79.1819C92.3594 77.6363 93.3491 76.7628 95.1272 76.7628H96.9053V75.5868C96.9053 74.2596 96.2511 73.5036 95.0601 73.5036C93.9194 73.5036 93.1646 74.2428 93.131 75.2172H92.6445C92.7284 73.974 93.6343 73.05 95.0937 73.05C96.5363 73.0332 97.375 73.974 97.375 75.57ZM96.8886 79.0475V77.2164H95.1272C93.651 77.2164 92.8626 77.9387 92.8626 79.1819C92.8626 80.4755 93.6175 81.2315 94.7749 81.2315C96.1673 81.2147 96.8886 80.4083 96.8886 79.0475Z" fill="white"/>
<path id="Vector_13" d="M104.403 73.2017L104.386 81.5175H103.9V77.4016H100.209V81.5175H99.7227L99.7394 73.2017H100.226V76.9312H103.916V73.2017H104.403Z" fill="white"/>
<path id="Vector_14" d="M111.499 78.9136C111.499 80.3919 110.476 81.5175 108.949 81.5175H106.752L106.769 73.2017H107.255V76.2928H108.966C110.459 76.2928 111.499 77.4184 111.499 78.9136ZM110.996 78.9136C110.996 77.6872 110.224 76.78 108.949 76.78H107.238V81.0639H108.949C110.208 81.0639 110.996 80.1567 110.996 78.9136Z" fill="white"/>
<path id="Vector_15" d="M116.112 81.1644C116.834 81.1644 117.169 80.1901 117.32 78.7789C117.454 77.5189 117.538 75.8389 117.572 73.1846H121.531L121.514 81.5004H121.027L121.044 73.6382H118.058C117.991 76.1581 117.891 77.9053 117.79 78.8461C117.622 80.4084 117.186 81.618 116.096 81.618L116.112 81.1644Z" fill="white"/>
<path id="Vector_16" d="M128.425 73.2014L125.456 82.794C125.171 83.7012 124.718 84.4404 123.862 84.4404H123.409V83.97H123.812C124.399 83.97 124.735 83.4492 125.003 82.6764L125.607 80.694L123.007 73.1846H123.527L125.842 79.9213L127.905 73.1846H128.425V73.2014Z" fill="white"/>
<path id="Vector_17" d="M134.094 73.2017L134.078 81.5175H133.591V78.0736C133.071 78.3592 132.366 78.544 131.746 78.544C130.219 78.544 129.313 77.4688 129.313 75.8056V73.2017H129.8V75.8056C129.8 77.2 130.572 78.0568 131.813 78.0568C132.366 78.0568 133.088 77.9056 133.625 77.5192V73.2017H134.094Z" fill="white"/>
<path id="Vector_18" d="M144.831 73.2017L144.814 81.5175H136.343L136.36 73.2017H136.846L136.829 81.0639H140.335L140.352 73.2017H140.838L140.822 81.0639H144.311L144.328 73.2017H144.831Z" fill="white"/>
<path id="Vector_19" d="M152.077 79.0477C151.91 80.6437 151.054 81.6853 149.427 81.6853C147.9 81.6853 146.944 80.6269 146.944 78.9805V75.7214C146.944 74.075 147.9 73.0166 149.444 73.0166C150.987 73.0166 151.943 74.075 151.943 75.7214V77.6029H147.448V78.9805C147.448 80.3581 148.202 81.1981 149.444 81.1981C150.786 81.1981 151.457 80.3749 151.591 79.0477H152.077ZM147.448 75.7214V77.1661H151.474V75.7214C151.474 74.3438 150.719 73.5038 149.444 73.5038C148.202 73.5038 147.448 74.3606 147.448 75.7214Z" fill="white"/>
<path id="Vector_20" d="M154.124 73.2017H154.61V79.048C154.61 79.5352 154.61 80.2072 154.593 80.6104L154.61 80.6272C154.744 80.3248 155.029 79.7368 155.264 79.3L158.435 73.1849H158.938L158.921 81.5175H158.435V75.9568C158.435 75.3521 158.451 74.5625 158.468 74.0417L158.451 74.0249C158.267 74.4617 157.948 75.1001 157.697 75.5704L154.56 81.5175H154.073L154.124 73.2017ZM154.929 70.1777H155.398C155.415 70.9841 155.835 71.4377 156.556 71.4377C157.294 71.4377 157.713 70.9841 157.73 70.1777H158.2C158.183 71.2193 157.546 71.8745 156.573 71.8745C155.6 71.8745 154.946 71.2193 154.929 70.1777Z" fill="white"/>
<path id="Vector_21" d="M170.278 79.199C170.278 80.6773 169.338 81.5341 167.661 81.5341H165.329L165.346 73.2183H167.543C169.02 73.2183 169.875 74.0414 169.875 75.3182C169.875 76.091 169.456 76.7126 168.734 77.099C169.674 77.3846 170.278 78.1574 170.278 79.199ZM169.791 79.199C169.791 78.0902 168.986 77.3846 167.761 77.3846H165.849V81.0637H167.678C169.053 81.0469 169.774 80.3917 169.791 79.199ZM165.832 76.8974H167.678C168.6 76.8974 169.372 76.1918 169.372 75.3014C169.372 74.327 168.718 73.6887 167.543 73.6887H165.832V76.8974Z" fill="white"/>
<path id="Vector_22" d="M177.038 79.0477C176.871 80.6437 176.015 81.6853 174.388 81.6853C172.861 81.6853 171.905 80.6269 171.905 78.9805V75.7214C171.905 74.075 172.861 73.0166 174.405 73.0166C175.948 73.0166 176.904 74.075 176.904 75.7214V77.6029H172.409V78.9805C172.409 80.3581 173.163 81.1981 174.405 81.1981C175.747 81.1981 176.418 80.3749 176.552 79.0477H177.038ZM172.392 75.7214V77.1661H176.418V75.7214C176.418 74.3438 175.663 73.5038 174.388 73.5038C173.147 73.5038 172.409 74.3606 172.392 75.7214Z" fill="white"/>
<path id="Vector_23" d="M184.084 75.772V78.964C184.084 80.6104 183.061 81.7023 181.652 81.7023C180.813 81.7023 179.957 81.2488 179.571 80.4928V84.4071H179.085L179.102 73.2185H179.555L179.588 74.4281C179.974 73.5545 180.762 73.0337 181.769 73.0337C183.061 73.0337 184.084 74.0921 184.084 75.772ZM183.597 75.772C183.597 74.3273 182.792 73.4873 181.635 73.4873C180.578 73.4873 179.571 74.3609 179.571 75.9736V79.0648C179.571 80.2744 180.41 81.2152 181.568 81.2152C182.759 81.2152 183.597 80.3584 183.597 78.9472V75.772Z" fill="white"/>
<path id="Vector_24" d="M186.013 78.9805V75.7214C186.013 74.075 186.952 73.0166 188.462 73.0166C190.022 73.0166 190.961 74.075 190.978 75.7886H190.492C190.475 74.3438 189.737 73.487 188.462 73.487C187.254 73.487 186.516 74.327 186.516 75.7046V78.9637C186.516 80.3413 187.271 81.1813 188.512 81.1813C189.77 81.1813 190.525 80.3413 190.542 78.8461H191.028C191.012 80.6101 190.055 81.6516 188.512 81.6516C186.969 81.6852 186.013 80.6269 186.013 78.9805Z" fill="white"/>
<path id="Vector_25" d="M192.991 73.2014H193.477V79.0477C193.477 79.5349 193.477 80.2069 193.46 80.61L193.477 80.6269C193.611 80.3245 193.897 79.7365 194.131 79.2997L197.302 73.1846H197.805L197.788 81.5172H197.302V75.9565C197.302 75.3517 197.319 74.5622 197.335 74.0414L197.319 74.0246C197.134 74.4613 196.815 75.0997 196.564 75.5701L193.427 81.5172H192.94L192.991 73.2014Z" fill="white"/>
<path id="Vector_26" d="M205.069 79.0477C204.901 80.6437 204.045 81.6853 202.418 81.6853C200.892 81.6853 199.936 80.6269 199.936 78.9805V75.7214C199.936 74.075 200.892 73.0166 202.435 73.0166C203.978 73.0166 204.934 74.075 204.934 75.7214V77.6029H200.439V78.9805C200.439 80.3581 201.194 81.1981 202.435 81.1981C203.777 81.1981 204.448 80.3749 204.582 79.0477H205.069ZM200.422 75.7214V77.1661H204.448V75.7214C204.448 74.3438 203.693 73.5038 202.418 73.5038C201.177 73.5038 200.439 74.3606 200.422 75.7214Z" fill="white"/>
<path id="Vector_27" d="M207.115 73.2017H207.601V79.048C207.601 79.5352 207.601 80.2072 207.584 80.6104L207.601 80.6272C207.735 80.3248 208.021 79.7368 208.255 79.3L211.426 73.1849H211.929L211.912 81.5175H211.426V75.9568C211.426 75.3521 211.443 74.5625 211.459 74.0417L211.443 74.0249C211.258 74.4617 210.939 75.1001 210.688 75.5704L207.551 81.5175H207.064L207.115 73.2017ZM207.903 70.1777H208.373C208.39 70.9841 208.809 71.4377 209.53 71.4377C210.268 71.4377 210.671 70.9841 210.688 70.1777H211.158C211.141 71.2193 210.503 71.8745 209.53 71.8745C208.574 71.8745 207.92 71.2193 207.903 70.1777Z" fill="white"/>
<path id="Vector_28" d="M218.119 78.9805V75.7214C218.119 74.075 219.059 73.0166 220.568 73.0166C222.129 73.0166 223.068 74.075 223.085 75.7886H222.598C222.581 74.3438 221.843 73.487 220.568 73.487C219.361 73.487 218.623 74.327 218.623 75.7046V78.9637C218.623 80.3413 219.377 81.1813 220.619 81.1813C221.877 81.1813 222.632 80.3413 222.649 78.8461H223.135C223.118 80.6101 222.162 81.6516 220.619 81.6516C219.059 81.6852 218.103 80.6269 218.119 78.9805Z" fill="white"/>
<path id="Vector_29" d="M230.013 79.0477C229.845 80.6437 228.99 81.6853 227.363 81.6853C225.836 81.6853 224.88 80.6269 224.88 78.9805V75.7214C224.88 74.075 225.836 73.0166 227.379 73.0166C228.923 73.0166 229.879 74.075 229.879 75.7214V77.6029H225.383V78.9805C225.383 80.3581 226.138 81.1981 227.379 81.1981C228.721 81.1981 229.392 80.3749 229.527 79.0477H230.013ZM225.366 75.7214V77.1661H229.392V75.7214C229.392 74.3438 228.637 73.5038 227.363 73.5038C226.121 73.5038 225.366 74.3606 225.366 75.7214Z" fill="white"/>
<path id="Vector_30" d="M237.091 76.4438V78.9638C237.091 80.6269 236.135 81.6853 234.575 81.6853C233.015 81.6853 232.042 80.6269 232.042 78.9638V73.9743C232.042 71.9415 233.535 71.2191 234.558 70.9167C235.347 70.6815 235.867 70.4295 236.202 69.7407L236.605 70.0095C236.252 70.8327 235.481 71.1687 234.709 71.4207C233.568 71.7567 232.562 72.3615 232.545 73.9743V74.999C232.965 74.0247 233.82 73.5375 234.81 73.5375C236.252 73.5375 237.108 74.6126 237.091 76.4438ZM236.605 76.511C236.605 74.8814 235.917 74.0246 234.726 74.0246C233.568 74.0246 232.545 74.8478 232.545 76.595V78.9806C232.545 80.3749 233.317 81.2149 234.592 81.2149C235.867 81.2149 236.621 80.3749 236.621 78.9806L236.605 76.511Z" fill="white"/>
<path id="Vector_31" d="M243.282 73.2017L243.265 81.5175H242.779V78.1912H241.068L238.971 81.5175H238.4L240.548 78.1576C239.424 77.9896 238.669 76.9648 238.669 75.6712C238.669 74.2432 239.642 73.2017 241.185 73.2017H243.282ZM242.795 73.6721H241.185C239.927 73.6721 239.172 74.512 239.172 75.688C239.172 76.8808 239.91 77.7712 241.034 77.7712H242.795V73.6721Z" fill="white"/>
</g>
</g>
</g>
</g>
<g id="Group_7">
<g id="Group_8">
<g id="Group_9">
<g id="Group_10">
<path id="Vector_32" d="M20.5794 41.6181C20.5794 41.6181 26.1319 39.4005 29.6714 41.4669C31.1475 42.3236 36.8342 45.986 35.1064 53.4451C34.1334 57.5946 30.1578 61.7273 25.4944 61.4921C19.5729 61.1897 12.863 60.2489 10.4475 50.6731C9.39066 46.5068 10.5313 40.8621 13.5844 37.5693C19.9588 30.6982 30.8959 31.555 37.2536 26.7671C40.3233 24.4487 42.4202 17.9809 40.9776 12.3866C39.3168 5.90187 32.6069 0.643555 32.6069 0.643555C32.6069 0.643555 33.6973 3.21391 32.8418 7.63224C31.9863 12.0506 30.3591 14.5537 28.5474 16.3513C26.7358 18.1489 23.8337 20.2152 23.8337 20.2152C23.8337 20.2152 24.7563 17.8297 24.0854 16.5865C23.4311 15.3769 23.2802 15.4273 23.2802 15.4273C23.2802 15.4273 22.8608 18.2497 19.4387 21.8784C16.0167 25.5071 4.79437 33.8398 2.9156 44.138C2.07686 48.7075 2.9827 53.4451 4.35823 56.2002C7.39446 62.2985 17.8619 67.5232 17.8619 67.5232C17.8619 67.5232 11.5882 67.9264 6.40475 63.5921C4.49242 61.9961 1.55684 58.6026 0.651002 56.385C0.449704 55.8978 -0.0199897 62.2145 3.56981 67.0192C6.79057 71.3368 12.9301 74.5791 19.3045 75.6879C24.1692 76.5447 28.6816 75.9399 28.6816 75.9399C28.6816 75.9399 25.4777 78.0734 20.2943 78.5102C16.8722 78.7958 10.2797 76.0911 10.2797 76.0911C10.2797 76.0911 13.3327 78.443 19.0026 80.3918C22.5253 81.6014 31.2482 82.6262 38.6123 79.0142C45.9764 75.4023 49.3146 70.0936 50.4217 66.8512C51.5289 63.6089 52.3508 59.241 51.076 55.0242C50.0024 51.4627 47.3016 47.9012 47.3016 47.9012C47.3016 47.9012 49.3817 48.9427 51.1431 51.4123C52.8205 53.7811 53.0889 54.6042 53.0889 54.6042C53.0889 54.6042 52.6696 46.7924 49.9688 42.9116C47.5029 39.3501 42.9738 34.3438 36.0122 33.8566C29.6043 33.403 27.1048 34.8646 24.5383 37.0485C22.5589 38.7453 20.5794 41.6181 20.5794 41.6181Z" fill="url(#paint0_radial_106_913)"/>
<path id="Vector_33" d="M20.5791 41.6182C20.5791 41.6182 24.907 34.2599 36.8339 37.0823C50.4046 40.3078 53.0886 54.6212 53.0886 54.6212C53.0886 54.6212 53.0551 46.7085 48.6265 40.7782C45.0367 35.9735 38.6455 33.7727 35.2403 33.5711C24.9238 32.9328 20.5791 41.6182 20.5791 41.6182Z" fill="url(#paint1_linear_106_913)"/>
<path id="Vector_34" d="M20.5964 41.6014C20.5964 41.6014 32.3387 34.1591 42.001 46.3221C48.3754 54.3524 43.5443 65.0538 36.0627 71.3873C22.6597 82.7103 10.3135 76.108 10.3135 76.108C10.3135 76.108 17.9628 83.2479 30.9129 81.1647C46.4296 78.6952 52.9885 68.0273 51.6465 56.6203C50.942 50.6564 44.6179 44.6085 41.7997 42.6934C30.3593 34.9319 20.5964 41.6014 20.5964 41.6014Z" fill="url(#paint2_linear_106_913)"/>
<path id="Vector_35" d="M20.5793 41.6179C20.5793 41.6179 26.5511 39.3164 31.4325 43.5835C34.972 46.6915 34.5191 52.0842 32.5397 55.6289C28.7318 62.4832 22.2232 63.004 15.2617 60.1648C2.76445 55.0745 3.03284 43.7683 3.03284 43.7683C3.03284 43.7683 0.415981 51.6642 6.4549 59.7112C13.7016 69.3543 24.1858 69.8079 31.5667 65.0871C36.8508 61.7104 40.2225 54.9401 37.4714 48.6402C31.919 35.9396 20.5793 41.6179 20.5793 41.6179Z" fill="url(#paint3_linear_106_913)"/>
<path id="Vector_36" d="M26.333 31.1014C26.333 31.1014 36.3811 28.3463 38.6121 20.2824C41.8161 8.84183 32.5564 0.55957 32.5564 0.55957C32.5564 0.55957 38.5283 4.15471 41.2458 10.1018C43.4433 14.9233 42.4368 19.8456 40.7258 23.0712C37.4044 29.3879 26.333 31.1014 26.333 31.1014Z" fill="url(#paint4_linear_106_913)"/>
<path id="Vector_37" d="M10.4473 30.6814C10.4473 30.6814 13.8525 27.2374 20.5289 23.2727C27.4737 19.1567 23.4645 13.8984 23.4645 13.8984C23.4645 13.8984 23.7832 16.6368 20.7805 20.0471C19.7237 21.2567 16.503 24.2303 14.3222 26.4478C11.8396 28.9678 10.4473 30.6814 10.4473 30.6814Z" fill="url(#paint5_linear_106_913)"/>
</g>
</g>
</g>
</g>
</g>
<defs>
<radialGradient id="paint0_radial_106_913" cx="0" cy="0" r="1" gradientUnits="userSpaceOnUse" gradientTransform="translate(34.5801 48.9067) rotate(18.9122) scale(34.1168 34.1569)">
<stop offset="0.0664" stop-color="#722B71"/>
<stop offset="0.3642" stop-color="#C71B73"/>
<stop offset="0.6546" stop-color="#D02229"/>
<stop offset="1" stop-color="#E9AB22"/>
</radialGradient>
<linearGradient id="paint1_linear_106_913" x1="19.8606" y1="48.5977" x2="48.7601" y2="42.929" gradientUnits="userSpaceOnUse">
<stop offset="0.0664" stop-color="#7A2C79"/>
<stop offset="0.3243" stop-color="#C81B74"/>
<stop offset="0.5938" stop-color="#D72229"/>
<stop offset="0.9944" stop-color="#E9AB22"/>
</linearGradient>
<linearGradient id="paint2_linear_106_913" x1="12.7161" y1="54.3512" x2="46.9083" y2="68.0335" gradientUnits="userSpaceOnUse">
<stop offset="0.0664" stop-color="#7A2C79"/>
<stop offset="0.3243" stop-color="#C81B74"/>
<stop offset="0.5938" stop-color="#D72229"/>
<stop offset="0.9944" stop-color="#E9AB22"/>
</linearGradient>
<linearGradient id="paint3_linear_106_913" x1="19.3384" y1="39.0308" x2="22.0227" y2="65.8425" gradientUnits="userSpaceOnUse">
<stop offset="0.0664" stop-color="#7A2C79"/>
<stop offset="0.3243" stop-color="#C81B74"/>
<stop offset="0.5938" stop-color="#D72229"/>
<stop offset="0.9944" stop-color="#E9AB22"/>
</linearGradient>
<linearGradient id="paint4_linear_106_913" x1="25.6319" y1="26.1197" x2="40.2987" y2="3.50236" gradientUnits="userSpaceOnUse">
<stop offset="0.0664" stop-color="#7A2C79"/>
<stop offset="0.3243" stop-color="#C81B74"/>
<stop offset="0.5938" stop-color="#D72229"/>
<stop offset="0.9944" stop-color="#E9AB22"/>
</linearGradient>
<linearGradient id="paint5_linear_106_913" x1="12.5067" y1="25.4989" x2="23.5673" y2="27.199" gradientUnits="userSpaceOnUse">
<stop offset="0.0664" stop-color="#7A2C79"/>
<stop offset="0.3243" stop-color="#C81B74"/>
<stop offset="0.5938" stop-color="#D72229"/>
<stop offset="0.9944" stop-color="#E9AB22"/>
</linearGradient>
</defs>
</svg>
