<svg width="53" height="81" viewBox="0 0 53 81" fill="none" xmlns="http://www.w3.org/2000/svg">
<path d="M20.0658 41.0585C20.0658 41.0585 25.6182 38.8409 29.1577 40.9073C30.6339 41.7641 36.3205 45.4264 34.5927 52.8855C33.6198 57.035 29.6442 61.1677 24.9808 60.9326C19.0593 60.6302 12.3494 59.6894 9.9338 50.1135C8.87699 45.9472 10.0177 40.3025 13.0707 37.0098C19.4451 30.1387 30.3822 30.9955 36.7399 26.2075C39.8097 23.8892 41.9065 17.4213 40.4639 11.827C38.8032 5.3423 32.0933 0.0839844 32.0933 0.0839844C32.0933 0.0839844 33.1836 2.65434 32.3281 7.07267C31.4726 11.491 29.8454 13.9941 28.0338 15.7917C26.2221 17.5893 23.3201 19.6557 23.3201 19.6557C23.3201 19.6557 24.2427 17.2701 23.5717 16.0269C22.9175 14.8173 22.7665 14.8677 22.7665 14.8677C22.7665 14.8677 22.3471 17.6901 18.9251 21.3188C15.503 24.9476 4.2807 33.2802 2.40192 43.5784C1.56319 48.148 2.46902 52.8855 3.84456 55.6406C6.88079 61.7389 17.3482 66.9637 17.3482 66.9637C17.3482 66.9637 11.0745 67.3668 5.89108 63.0325C3.97875 61.4365 1.04317 58.043 0.13733 55.8254C-0.0639675 55.3382 -0.533662 61.6549 3.05614 66.4597C6.2769 70.7772 12.4165 74.0195 18.7909 75.1283C23.6556 75.9851 28.168 75.3803 28.168 75.3803C28.168 75.3803 24.964 77.5139 19.7806 77.9507C16.3585 78.2363 9.76605 75.5315 9.76605 75.5315C9.76605 75.5315 12.8191 77.8835 18.4889 79.8322C22.0116 81.0418 30.7345 82.0666 38.0986 78.4547C45.4628 74.8427 48.8009 69.534 49.9081 66.2917C51.0152 63.0493 51.8372 58.6814 50.5623 54.4647C49.4887 50.9031 46.788 47.3416 46.788 47.3416C46.788 47.3416 48.868 48.3832 50.6294 50.8527C52.3069 53.2215 52.5753 54.0447 52.5753 54.0447C52.5753 54.0447 52.1559 46.2328 49.4552 42.3521C46.9893 38.7905 42.4601 33.7842 35.4985 33.297C29.0906 32.8434 26.5911 34.305 24.0246 36.489C22.0452 38.1857 20.0658 41.0585 20.0658 41.0585Z" fill="url(#paint0_radial_428_487)"/>
<path d="M20.0654 41.0586C20.0654 41.0586 24.3933 33.7004 36.3202 36.5227C49.891 39.7483 52.5749 54.0616 52.5749 54.0616C52.5749 54.0616 52.5414 46.1489 48.1128 40.2186C44.523 35.4139 38.1319 33.2132 34.7266 33.0116C24.4101 32.3732 20.0654 41.0586 20.0654 41.0586Z" fill="url(#paint1_linear_428_487)"/>
<path d="M20.0827 41.0418C20.0827 41.0418 31.8251 33.5995 41.4873 45.7625C47.8618 53.7928 43.0306 64.4942 35.5491 70.8277C22.146 82.1507 9.7998 75.5484 9.7998 75.5484C9.7998 75.5484 17.4491 82.6883 30.3992 80.6051C45.9159 78.1356 52.4748 67.4678 51.1328 56.0608C50.4283 50.0969 44.1042 44.049 41.2861 42.1338C29.8457 34.3723 20.0827 41.0418 20.0827 41.0418Z" fill="url(#paint2_linear_428_487)"/>
<path d="M20.0656 41.0584C20.0656 41.0584 26.0374 38.7568 30.9189 43.0239C34.4583 46.1319 34.0054 51.5246 32.026 55.0693C28.2181 61.9236 21.7095 62.4444 14.748 59.6052C2.25078 54.5149 2.51917 43.2087 2.51917 43.2087C2.51917 43.2087 -0.0976906 51.1046 5.94123 59.1517C13.1879 68.7947 23.6722 69.2483 31.0531 64.5276C36.3371 61.1508 39.7088 54.3805 36.9578 48.0806C31.4053 35.3801 20.0656 41.0584 20.0656 41.0584Z" fill="url(#paint3_linear_428_487)"/>
<path d="M25.8193 30.5419C25.8193 30.5419 35.8674 27.7867 38.0985 19.7229C41.3024 8.28226 32.0428 0 32.0428 0C32.0428 0 38.0146 3.59514 40.7321 9.54224C42.9296 14.3638 41.9231 19.2861 40.2121 22.5116C36.8907 28.8283 25.8193 30.5419 25.8193 30.5419Z" fill="url(#paint4_linear_428_487)"/>
<path d="M9.93359 30.1218C9.93359 30.1218 13.3389 26.6778 20.0152 22.7131C26.96 18.5972 22.9508 13.3389 22.9508 13.3389C22.9508 13.3389 23.2695 16.0772 20.2669 19.4876C19.21 20.6971 15.9893 23.6707 13.8086 25.8883C11.3259 28.4082 9.93359 30.1218 9.93359 30.1218Z" fill="url(#paint5_linear_428_487)"/>
<defs>
<radialGradient id="paint0_radial_428_487" cx="0" cy="0" r="1" gradientUnits="userSpaceOnUse" gradientTransform="translate(34.0665 48.3471) rotate(18.9122) scale(34.1168 34.1569)">
<stop offset="0.0664" stop-color="#722B71"/>
<stop offset="0.3642" stop-color="#C71B73"/>
<stop offset="0.6546" stop-color="#D02229"/>
<stop offset="1" stop-color="#E9AB22"/>
</radialGradient>
<linearGradient id="paint1_linear_428_487" x1="19.3469" y1="48.0381" x2="48.2465" y2="42.3694" gradientUnits="userSpaceOnUse">
<stop offset="0.0664" stop-color="#7A2C79"/>
<stop offset="0.3243" stop-color="#C81B74"/>
<stop offset="0.5938" stop-color="#D72229"/>
<stop offset="0.9944" stop-color="#E9AB22"/>
</linearGradient>
<linearGradient id="paint2_linear_428_487" x1="12.2024" y1="53.7917" x2="46.3946" y2="67.474" gradientUnits="userSpaceOnUse">
<stop offset="0.0664" stop-color="#7A2C79"/>
<stop offset="0.3243" stop-color="#C81B74"/>
<stop offset="0.5938" stop-color="#D72229"/>
<stop offset="0.9944" stop-color="#E9AB22"/>
</linearGradient>
<linearGradient id="paint3_linear_428_487" x1="18.8247" y1="38.4712" x2="21.509" y2="65.2829" gradientUnits="userSpaceOnUse">
<stop offset="0.0664" stop-color="#7A2C79"/>
<stop offset="0.3243" stop-color="#C81B74"/>
<stop offset="0.5938" stop-color="#D72229"/>
<stop offset="0.9944" stop-color="#E9AB22"/>
</linearGradient>
<linearGradient id="paint4_linear_428_487" x1="25.1182" y1="25.5601" x2="39.7851" y2="2.94279" gradientUnits="userSpaceOnUse">
<stop offset="0.0664" stop-color="#7A2C79"/>
<stop offset="0.3243" stop-color="#C81B74"/>
<stop offset="0.5938" stop-color="#D72229"/>
<stop offset="0.9944" stop-color="#E9AB22"/>
</linearGradient>
<linearGradient id="paint5_linear_428_487" x1="11.993" y1="24.9393" x2="23.0536" y2="26.6394" gradientUnits="userSpaceOnUse">
<stop offset="0.0664" stop-color="#7A2C79"/>
<stop offset="0.3243" stop-color="#C81B74"/>
<stop offset="0.5938" stop-color="#D72229"/>
<stop offset="0.9944" stop-color="#E9AB22"/>
</linearGradient>
</defs>
</svg>
