<svg width="90" height="139" viewBox="0 0 90 139" fill="none" xmlns="http://www.w3.org/2000/svg">
<path d="M34.3382 70.1726C34.3382 70.1726 43.8489 66.3887 49.8965 69.9024C52.4135 71.372 62.1607 77.6392 59.1875 90.3595C57.532 97.4545 50.7073 104.516 42.7339 104.11C32.5814 103.587 21.1112 101.999 16.9724 85.6126C15.1649 78.5008 17.1245 68.8381 22.3612 63.2128C33.2909 51.4723 51.9912 52.9251 62.8702 44.7321C68.1407 40.7792 71.7051 29.7313 69.2556 20.17C66.4177 9.08829 54.9305 0.101318 54.9305 0.101318C54.9305 0.101318 56.8056 4.47655 55.336 12.0276C53.8832 19.5787 51.0959 23.8695 47.9876 26.9271C44.8793 29.9847 39.9297 33.5322 39.9297 33.5322C39.9297 33.5322 41.5008 29.4441 40.369 27.3156C39.254 25.2378 38.9837 25.3392 38.9837 25.3392C38.9837 25.3392 38.2742 30.1536 32.3955 36.3702C26.5169 42.6036 7.32665 56.8104 4.10012 74.4296C2.66424 82.251 4.21838 90.3257 6.58337 95.0557C11.7863 105.495 29.6927 114.398 29.6927 114.398C29.6927 114.398 18.9489 115.074 10.0802 107.692C6.80297 104.972 1.78581 99.1776 0.231672 95.3767C-0.106184 94.5489 -0.917036 105.327 5.24884 113.57C10.7728 120.952 21.2632 126.493 32.1759 128.402C40.4872 129.855 48.2241 128.841 48.2241 128.841C48.2241 128.841 42.7171 132.49 33.8483 133.25C27.9865 133.74 16.719 129.112 16.719 129.112C16.719 129.112 21.9389 133.149 31.6692 136.477C37.6999 138.538 52.6331 140.278 65.2352 134.112C77.8372 127.946 83.5638 118.858 85.4558 113.317C87.3478 107.793 88.7499 100.309 86.5708 93.1131C84.7126 87.0148 80.1177 80.9502 80.1177 80.9502C80.1177 80.9502 83.6652 82.724 86.6721 86.9641C89.5608 91.0183 90 92.4204 90 92.4204C90 92.4204 89.2736 79.0583 84.6619 72.4363C80.4218 66.3549 72.6849 57.7902 60.7586 56.9625C49.7951 56.2023 45.5044 58.6855 41.1122 62.402C37.7337 65.2568 34.3382 70.1726 34.3382 70.1726Z" fill="url(#paint0_radial_439_857)"/>
<path d="M34.3379 70.1726C34.3379 70.1726 41.7538 57.5875 62.1772 62.4188C85.4217 67.9259 89.9997 92.3866 89.9997 92.3866C89.9997 92.3866 89.949 78.8555 82.3472 68.7367C76.1982 60.5268 65.2517 56.7597 59.4237 56.405C41.7876 55.3407 34.3379 70.1726 34.3379 70.1726Z" fill="url(#paint1_linear_439_857)"/>
<path d="M34.3552 70.1389C34.3552 70.1389 54.4745 57.4018 70.9957 78.1968C81.9253 91.9306 73.631 110.226 60.8431 121.037C37.8858 140.413 16.7529 129.112 16.7529 129.112C16.7529 129.112 29.8448 141.308 52.0082 137.778C78.5637 133.538 89.7974 115.31 87.5168 95.8329C86.3175 85.6465 75.4892 75.3081 70.6578 72.0309C51.0622 58.7532 34.3552 70.1389 34.3552 70.1389Z" fill="url(#paint2_linear_439_857)"/>
<path d="M34.3375 70.1727C34.3375 70.1727 44.5407 66.2198 52.9196 73.5344C58.9841 78.8387 58.1901 88.0453 54.8284 94.1098C48.3078 105.817 37.1586 106.729 25.2492 101.881C3.86287 93.1807 4.30208 73.8553 4.30208 73.8553C4.30208 73.8553 -0.191399 87.3358 10.1639 101.103C22.5632 117.591 40.5202 118.368 53.1561 110.31C62.2106 104.533 67.971 92.9442 63.258 82.1835C53.7642 60.4763 34.3375 70.1727 34.3375 70.1727Z" fill="url(#paint3_linear_439_857)"/>
<path d="M44.2031 52.1987C44.2031 52.1987 61.4 47.4856 65.2346 33.7011C70.691 14.1393 54.8456 0 54.8456 0C54.8456 0 65.0826 6.14898 69.7112 16.3015C73.4614 24.5283 71.7384 32.941 68.8328 38.4649C63.14 49.2594 44.2031 52.1987 44.2031 52.1987Z" fill="url(#paint4_linear_439_857)"/>
<path d="M16.9902 51.4723C16.9902 51.4723 22.8182 45.5767 34.2378 38.8196C46.1134 31.7753 39.2549 22.8052 39.2549 22.8052C39.2549 22.8052 39.8124 27.4845 34.6432 33.3125C32.8188 35.3734 27.3286 40.475 23.5953 44.259C19.3721 48.5667 16.9902 51.4723 16.9902 51.4723Z" fill="url(#paint5_linear_439_857)"/>
<defs>
<radialGradient id="paint0_radial_439_857" cx="0" cy="0" r="1" gradientUnits="userSpaceOnUse" gradientTransform="translate(58.3203 82.6357) rotate(18.8861) scale(58.3959 58.3959)">
<stop offset="0.0664" stop-color="#722B71"/>
<stop offset="0.3642" stop-color="#C71B73"/>
<stop offset="0.6546" stop-color="#D02229"/>
<stop offset="1" stop-color="#E9AB22"/>
</radialGradient>
<linearGradient id="paint1_linear_439_857" x1="33.122" y1="82.1072" x2="82.5902" y2="72.3894" gradientUnits="userSpaceOnUse">
<stop offset="0.0664" stop-color="#7A2C79"/>
<stop offset="0.3243" stop-color="#C81B74"/>
<stop offset="0.5938" stop-color="#D72229"/>
<stop offset="0.9944" stop-color="#E9AB22"/>
</linearGradient>
<linearGradient id="paint2_linear_439_857" x1="20.9056" y1="91.926" x2="79.4159" y2="115.374" gradientUnits="userSpaceOnUse">
<stop offset="0.0664" stop-color="#7A2C79"/>
<stop offset="0.3243" stop-color="#C81B74"/>
<stop offset="0.5938" stop-color="#D72229"/>
<stop offset="0.9944" stop-color="#E9AB22"/>
</linearGradient>
<linearGradient id="paint3_linear_439_857" x1="32.1255" y1="65.8251" x2="36.7072" y2="111.658" gradientUnits="userSpaceOnUse">
<stop offset="0.0664" stop-color="#7A2C79"/>
<stop offset="0.3243" stop-color="#C81B74"/>
<stop offset="0.5938" stop-color="#D72229"/>
<stop offset="0.9944" stop-color="#E9AB22"/>
</linearGradient>
<linearGradient id="paint4_linear_439_857" x1="43.0288" y1="43.7955" x2="68.0846" y2="5.09978" gradientUnits="userSpaceOnUse">
<stop offset="0.0664" stop-color="#7A2C79"/>
<stop offset="0.3243" stop-color="#C81B74"/>
<stop offset="0.5938" stop-color="#D72229"/>
<stop offset="0.9944" stop-color="#E9AB22"/>
</linearGradient>
<linearGradient id="paint5_linear_439_857" x1="20.7446" y1="42.4993" x2="39.6779" y2="45.4139" gradientUnits="userSpaceOnUse">
<stop offset="0.0664" stop-color="#7A2C79"/>
<stop offset="0.3243" stop-color="#C81B74"/>
<stop offset="0.5938" stop-color="#D72229"/>
<stop offset="0.9944" stop-color="#E9AB22"/>
</linearGradient>
</defs>
</svg>
